<svg id="Layer_1" data-name="Layer 1" xmlns="http://www.w3.org/2000/svg" viewBox="0 0 949.29 1278.49"><defs><style>.cls-1{fill:#b3d59d;}</style></defs><path class="cls-1" d="M876.7,2.5C869,9.7,859,26.4,844,57.4c-11,22.6-22.6,48.1-23.6,52-.5,2.1-.1,2.2,24.8,4.5,13.9,1.2,25.5,2.4,25.6,2.6.5.5-6.1,1.3-18.8,2.5-16.9,1.5-20.2,2.9-29.2,11.9-14.2,14.4-26.3,35.4-52.3,90.9-15,32.2-29.5,60.9-32.7,64.9-1.7,2.1,3.8,3.5,15.7,4.1,9.2.4,12.6.1,20-1.8,35.4-8.8,62.7-37.2,79.8-83,3.9-10.4,11.7-35.6,11.8-38,0-.8.5-.4,1.1,1,1.7,4,1.3,30.3-.5,40a125.09,125.09,0,0,1-19.2,47.1,127.06,127.06,0,0,1-33.3,33.3c-18.4,12.3-32.9,17.5-58.7,21.2-20.7,3-23.2,3.6-31.8,8.2-13.1,6.8-24.3,20.3-35.6,43.1-2.9,5.7-4.9,10.6-4.6,11s16.7.6,36.3.6c29.2,0,37.9-.3,47.6-1.8,13.5-2.1,30.9-6.4,40.9-10.1,33.8-12.9,60.6-37.8,70.8-66l1.8-5.1.1,3.6c0,5.2-4.3,21.3-7.7,29a113.62,113.62,0,0,1-6.7,12c-2,2.9-3.6,5.9-3.6,6.6s1.8,2.6,4.1,4.3c13.6,9.8,33.3,9.4,45.2-1,14.9-13.1,17.2-35.9,7.7-77-1.5-6.9-6-23.8-9.8-37.6-13.4-47.9-14.8-56.9-18.6-122.9-.8-13.8-2-36.7-2.5-51-1.7-40.9-2-45.6-3.8-51.2C882.4-.7,880.9-1.3,876.7,2.5Z" transform="translate(-0.18 -0.11)"/><path class="cls-1" d="M852.4,2.4c-9.5,3-21.9,11.6-59.9,41.8-34.2,27.1-47.7,36.6-62,43.7C709.8,98.2,691.1,104,649,113c-50.5,10.9-82.2,20-122.4,35.2-37,14-79.5,33.8-111.6,52.1-23.6,13.4-37.7,26.3-45.2,41.4-4,8-4.3,9.2-4.6,18.4-.6,14.9,2.7,25,11.1,33.8,3.7,3.8,12.5,9.1,15.2,9.1.6,0,2.1-1.9,3.4-4.3,4.5-7.9,16.4-25.2,24.4-35.5,7.9-10.1,10.8-13.1,6.8-7C418.6,267.5,411.2,287,408,304c-4.6,23.5-4.8,45.8-.9,95.5,6.8,88.6,16.3,140.7,34.6,190.5,4,10.9,16.3,39.4,17.6,40.7.9.9,9.1-5,13.8-9.9,5.4-5.6,11.9-18,14.6-27.8,2.4-9,2.4-36.5-.1-55-1-7.7-2-23-2.3-35.6-.8-34.2,2-55.8,12.6-95.6,7.6-28.7,9.4-41.3,9.5-65.8.1-15.8-.4-22.9-1.8-31-2.3-12.8-6.5-28.1-10.4-37.6l-2.9-7.1,6.7,6.6c6,5.9,17.8,14.1,20.5,14.1.5,0,2-5.5,3.2-12.3a170.07,170.07,0,0,1,31.1-71.2c5.4-7,20-22.3,25.7-26.8l4-3.2-4.6,6c-19.2,25.1-32.9,58.7-45.9,112-21,86.1-27.1,124.2-27.1,168.5.1,28.1,3,50.8,9.3,72.4l2,6.9,2.2-2.4c1.3-1.3,9.7-10.5,18.7-20.4s21.6-23.5,28-30.1c23-24.1,25.4-28.5,31.9-59,4.4-21.2,7.6-45.2,11-83.9,3.5-40.4,4.9-50.6,8.5-63,3.9-13.4,8.4-24.3,21.9-52.5,6.8-14,13.3-28.1,14.6-31.2,2.3-5.6,2.5-5.8,8.4-7.8a63.14,63.14,0,0,1,6.8-2c.5,0-1.4,4.4-4.1,9.7-16.5,33-27.9,74.4-32.6,118.8-1.7,16.1-2,49.8-.5,63,1.4,12.6,3.1,20.6,4.2,19.9,2.1-1.3,31-41,45.1-62,65.6-97.6,104-185.2,111.7-255.3,1.1-9.6,1.5-11.1,3-11.1,1.8,0,2.2,4.5,3,29.5.7,23.8,1.8,32.5,3.8,32.5.6,0,52.9-113.4,57.1-123.8,1.3-3.2,1.3-3.6-.4-4.8C857.3.8,857.7.8,852.4,2.4Z" transform="translate(-0.18 -0.11)"/><path class="cls-1" d="M326.2,248c-6.2,2.2-25.3,13.6-43,25.7C147.4,365.9,52.1,515.1,25,677.5c-5.4,32.7-6.5,46.5-9,114-1.3,33-2.4,42.6-8.4,73.1C1.3,896.4-.3,909.9.3,924c1.7,35.3,19,57.1,58.1,73.6,23.2,9.8,106,38.2,118.1,40.5,9.3,1.8,27.7,1.8,33.8,0s13.1-7.9,15.3-13.6c3-7.9,1.6-19.7-4.9-41.5-3.1-10.2-8.3-29.5-11.7-43-23.9-94.5-25.2-98.5-35.5-114-9.2-13.9-21.1-22.8-52.7-39.8C96.1,772.9,91.7,770,80,758.5a63.17,63.17,0,0,1-14.5-20.9c-1.6-3.8-1.2-3.6,7.8,5C86.4,755,99,763.7,115.9,772.3c14,7,14.7,7.2,21.7,7.2,6.3,0,7.6-.3,9.8-2.4a14.5,14.5,0,0,0,4.1-12.4c-.4-1.7-4-11.5-8-21.7-17.4-44-26.4-85.5-27.9-129l-.5-13.5,1.4,10.7c3.2,24.8,9.3,47.4,20.5,75.2,7,17.4,12.1,28.8,30.5,67.2,9,18.8,18.9,40.1,22,47.2,16.5,38.8,27.3,76.3,44.6,154.2,3.9,17.9,7.4,32.7,7.6,33s3.7-1.2,7.8-3.3c17.4-9,32.9-30.8,42.6-59.9,5.7-16.8,7.8-28.8,8.6-46.8.7-18.2-.4-32.4-5.3-67C285.8,743.1,282,691.3,282,629c0-35.7,2.4-94.5,3.6-90.5.3.9,3.9,61.8,11.4,191.5,3.7,63.3,7.6,87.6,18.6,113.2,3.5,8.3,12,22.8,13.2,22.8.4,0,4.5-7.5,9.1-16.6,21.1-41.6,40.6-72,62.5-97.2,5.2-6,11.5-14,14.1-17.8,6.5-9.7,20.2-37.1,22-44,3.7-14.3.2-43.6-8.5-70.6-3.1-9.7-3.7-13.5-23.5-136L395,425.1l-1-26.8c-1.2-31.4-2.9-44.2-7.4-57.5-4.8-14-8.4-19.3-24.8-36.5-18.1-18.9-21.2-24.2-21.2-36.8-.1-6.5.3-8.8,2.2-12.5l2.4-4.4-2.7-2.3C339.2,245.4,333.6,245.3,326.2,248Z" transform="translate(-0.18 -0.11)"/><path class="cls-1" d="M922.6,350.6c-9.4,8.3-26.1,14.7-46.6,17.8-5.8.9-36.1,4.8-67.5,8.6-90.7,11.2-131,16.2-131.1,16.3s-11.8,15.3-26.1,33.7-26.2,34.1-26.7,34.8,1.9.1,5.1-1.4c40.9-18.4,77.6-27.6,120.8-30.4,41.8-2.6,49.6-3.2,59-4.6,20.4-2.9,36.5-8.6,49.6-17.4,8.3-5.6,4.9-1.6-5.1,5.9-22.8,17.1-47.9,24.6-103.5,30.6-49.5,5.3-67.7,9.5-90.1,20.8-28.3,14.2-52.8,39.7-78.1,81.2-9.5,15.5-20.7,35.5-20.2,35.9.2.2,5,1.5,10.7,3,28.8,7.2,64.2,5.4,103.3-5.4,55.3-15.1,110.5-46.6,149-85,17.8-17.8,28.1-31.4,38.1-50.5l5.8-11v11.6c0,12.5-.9,16.5-4.8,21.8l-2.5,3.3,3.4-.7c4.9-1.1,12.5-4.6,22-10.2,13-7.7,18.9-9.6,28.9-9.6,4.7.1,9.8.5,11.4,1,2.8.9,2.5,1.1-5.5,3.7-33,11.2-72.8,36-107.4,67C773.5,558.3,729,583,677,597.9c-25.1,7.1-46.8,10.5-81.9,12.6-27.5,1.7-39.8,3.8-49.8,8.4-18.8,8.8-31.5,22.7-60.1,65.7a856.53,856.53,0,0,0-52.8,90.5c-7.2,14.5-20.4,42.6-20.4,43.6s41.9-5.8,59.5-9.7c66.8-14.9,131.4-40.4,197-77.8C743.4,688.5,812.6,635.4,898,555c18.5-17.5,18.5-17.1-.3,6.3-32.3,40.1-80.4,88.9-119,120.6-4.2,3.5-7.5,6.6-7.3,6.8,1.2,1.3,18,3.4,31.1,3.9a192.71,192.71,0,0,0,110-29l9-5.6-8,7.8c-13.6,13.2-29,21.9-52.8,29.7-15.8,5.2-30.1,8.3-62.7,13.6-13.5,2.2-27.9,4.6-32,5.5-20.6,4.1-42.5,11.1-55.5,17.7-8.4,4.2-23.3,14.2-22.4,15.1.9.7,25,5.7,39.4,8.1a501,501,0,0,0,66.5,6.4l21.5.7-7,3.3c-16.2,7.7-40.4,11.1-65.3,9.2-8.1-.6-23.6-2.2-34.5-3.6-37.6-4.7-57-5-78.1-1-19.9,3.7-38.2,10.4-76.7,27.8-53.4,24.1-61.3,26.8-104.4,35.7-32.4,6.7-46.2,13.3-61.5,29.7-8.7,9.3-14.8,18.6-28,42.3-13.6,24.5-21.9,36.7-31.1,46.2-4.1,4.3-7.3,7.8-7,7.8s10.7,1,23.1,2.1c33,3,81.6,3.6,103,1.4,31.9-3.2,55.4-9,81-20,14.5-6.2,30.9-16.1,41.7-25.2a45,45,0,0,1,5.7-4.3c.4,0-3.5,6.1-8.5,13.6s-8.9,13.7-8.7,13.9c1.1.9,51.7-14.5,79.3-24.3,42.5-15.1,90.2-36.9,125-57.3,41.8-24.4,82.2-56.2,107.5-84.3,5.7-6.4,10.6-11.4,10.8-11.1s.1,2.9-.3,6c-1.4,11.6-13.7,30.6-31.2,48.2-5.1,5.2-9.3,9.7-9.3,10s3.7.3,8.3.1c19.2-1.2,46.4-14.6,65.4-32.2,11.9-11,17.8-21.9,22.7-41.9,4.4-17.4,6.1-37.8,10.8-128.7,1.7-32,1.7-121.6,0-144-3.6-48.6-9-85.8-18-124.1l-2.7-11.7Z" transform="translate(-0.18 -0.11)"/><path class="cls-1" d="M594,484.4c-26.7,23.4-50.4,53.1-79.4,99.5-4.3,6.8-22.7,38.3-40.8,70C382.9,812.3,341.5,880.6,288.2,959.5q-94.5,140.1-190,237.6l-18.3,18.7-.4,15.8c-.6,19.5-2.1,32.9-4.6,40.8a43.51,43.51,0,0,0-1.6,6.2c.3.3,24.7-26.1,36.7-39.6,55.3-62.3,111.5-137.3,164-218.5,46-71.2,87.1-141,159-270,82.6-148.2,111.4-195.1,157.4-256,12.1-15.9,14-18.5,13.4-18.5C603.6,476,599.2,479.8,594,484.4Z" transform="translate(-0.18 -0.11)"/><path class="cls-1" d="M934.5,793.1c-.4.6-.5,1.2-.2,1.5s.7-.2,1-1.1C936,791.8,935.4,791.5,934.5,793.1Z" transform="translate(-0.18 -0.11)"/><path class="cls-1" d="M926.5,806.2c-7.9,10.9-23.5,26.5-31.1,31.1a77.14,77.14,0,0,1-25.6,9.7c-3.5.6-16,1.5-27.8,2-15.6.7-23.8,1.5-29.9,3-14.7,3.6-26.1,10.4-31.2,18.6-2.6,4.2-2.8,4,7.6,8.3a125.75,125.75,0,0,0,100.8-3.4l7.2-3.6-5.1,4.8c-18.6,17.5-51.1,25.1-95.2,22.3-9.7-.6-23.1-1.5-29.7-2-45.2-3.6-76.3,2-98,17.5-11,7.8-17.5,17.6-17.5,26.3,0,11,8.9,17.5,35,25.6,24.5,7.6,41.7,10.4,67.5,11.3,20.7.7,37-.6,55.4-4.3,6.8-1.4,12.6-2.3,12.8-2,.6.6-10.4,6.7-19.7,11-36.2,16.5-81.6,18.4-118,4.9-5.2-2-19.2-8.4-31-14.4-31.3-15.8-42.2-18.7-65.4-17.6-6.7.3-47,4.7-89.6,9.7s-89.2,10.4-103.5,12c-46.8,5.4-60.5,8.5-77.9,17.1-14.5,7.2-20,13.3-30.3,33.4-3.6,7.1-7.7,14.7-9,16.7a22.69,22.69,0,0,0-2.3,4.6c0,.5,7.3,1.9,16.2,3.1s33,4.9,53.3,8.2c86.7,14,111.5,16.5,157.4,15.6,21.8-.4,31.7-1,47.1-3.1,46.1-6.2,72.4-12.7,89.9-22.2,8.6-4.7,20.1-13.5,25.2-19.3l4.1-4.6-3.3,6c-1.8,3.3-5,9.1-7.1,12.8s-3.8,7-3.8,7.2,3.2,1.1,7.1,2c41.8,9.5,88.1,3.9,126.2-15.1,3.7-1.9,6.7-3.2,6.7-2.9,0,1.4-23.7,15.8-37,22.4-31.4,15.6-60.3,23.5-96.1,26.2a224.32,224.32,0,0,1-23.6.5c-5.2-.5-8.3-.3-8.3.3,0,1.3,13.4,13.3,21.5,19.2,7.7,5.6,23.3,13.7,32.5,16.9a53.19,53.19,0,0,1,7.4,3.1c1.6,1.4-10.9,2.2-18.5,1.1-11.1-1.6-21.3-5.9-40-16.8-19.3-11.4-25.9-14.6-37.1-17.8-16.9-4.9-36.1-5.5-60.8-2-10.5,1.5-39.1,7.2-39.9,7.9-.9.9,10.5,14.8,17.9,21.9,22.7,21.6,55.7,34.5,85.5,33.4,11.1-.4,10.3.5-2.6,2.8-20.7,3.6-44.9,0-64.4-9.5-13-6.4-17.8-10.1-36-27.8-22.5-22-29.5-25.5-51-25.6a198.61,198.61,0,0,0-26.5,1.7c-25.2,3.4-42.2,1.6-67.5-7.4-40.4-14.4-48.4-16.4-66-16.4-13.1,0-21,1.6-29.9,6.1-5.8,3-11.6,7.1-11.6,8.4,0,1.1,19.8,30,29.3,42.9,18.2,24.7,38.5,47,55.8,61.5,28.8,24.1,61.4,38.5,101.3,44.7,11.7,1.8,18.6,2.2,40.1,2.2,27.3.1,37.4-.7,63.5-5a485.34,485.34,0,0,0,249.5-122.1C860,1037.2,913.9,934.6,930,826.7c2.1-14.1,3.6-28.7,2.9-28.7C932.6,798,929.7,801.7,926.5,806.2Z" transform="translate(-0.18 -0.11)"/></svg>