<svg id="Layer_1" data-name="Layer 1" xmlns="http://www.w3.org/2000/svg" viewBox="0 0 650.04 640"><defs><style>.cls-1{fill:#b3d59d;}</style></defs><path class="cls-1" d="M335.65,1.44c-.58.8-1.95,6.88-3.1,13.52-1.49,9.86-3,14.21-7.56,23.73-7.45,15.12-15.93,27.84-20.28,30.36-5.85,3.44-25.1,24.07-31.18,33.58A149.09,149.09,0,0,1,258.64,121c-9.86,10.2-13.53,16.27-14.44,24.29a56.46,56.46,0,0,1-2.87,11.47c-3.44,9.74-3.78,16.38-1.6,30.82,2.17,13.3,2.17,13.3-.46,26.71-1.38,7.33-2.87,17.87-3.33,23.6-.91,12.49-.8,12.49-15.7,3-16.5-10.66-44-26.36-71.39-40.68C79.28,163.72,47.42,139.88,16,100.57L4.33,85.9,2.16,90.83,0,95.76l11.12,12C48.46,148,79.05,170,150.57,208c11.57,6.08,24.41,13.18,28.65,15.7,14.78,9.06,38.62,25.67,44.81,31.4l6.18,5.62-2.4,1.95c-1.38,1.14-4.93,2.4-7.91,2.75A62.63,62.63,0,0,0,200.19,271a92.53,92.53,0,0,1-12.61,4.59,76.26,76.26,0,0,0-11.92,4.35c-6,3.1-16.38,13.07-19,18.22-3.55,6.88-11.23,36.45-12.61,48.59-.8,7.11-2.17,13.18-3.66,16a24.56,24.56,0,0,0-2.64,8.59c-2.29,31.63-5.84,44.47-15.47,55.47-4.24,4.7-4.36,8-.46,10.54,2.75,1.84,3,1.84,6-.57,7.22-5.73,9.4-6.3,18.8-4.35,9.62,1.94,23.83,8.13,31.74,13.75,5.62,4,10.66,8.94,32.43,31.86,15.93,16.73,17.08,18.22,27.85,34.26,4.35,6.54,12.95,16.62,21.32,25.22,15.12,15.47,33.57,37,40.91,47.79,6,8.82,8.48,13.86,14.44,29.22,2.75,7.1,6.3,15.81,7.91,19.14l2.75,6.3.8-4.13c.46-2.29,1.26-10.77,1.83-18.9s1.38-15.93,1.84-17.54c1.72-7.33,6-19.25,12.6-36.21,4-10.2,8.14-22.58,9.17-27.51s2.52-10.43,3.44-12a52,52,0,0,0,2.86-11.46c1.49-9.4,6.19-19.25,14.21-29.68,2.64-3.44,7-9.63,9.75-13.75s5.73-8,6.76-8.6c2.52-1.6,26.47-11.57,35.87-14.9,11.69-4.12,26.81-6.3,51.91-7.56,27.28-1.38,36.67-.46,56.16,5.27,23,6.88,28.65,6.53,54.89-2.87a63.66,63.66,0,0,1,21.2-4.24c10.77-.57,13.52-.11,26.47,3.79,9.63,2.86,13.64,3.32,14.33,1.37.57-1.49-11-25.33-15.47-31.86s-7.11-13.41-11.58-30c-5.27-20.06-9.05-28.08-17.64-38.85-3.33-4.13-8.14-10.66-10.55-14.33-12-18.68-21.54-27.85-37.59-36.56-14.78-8-18-11.11-28.88-27.27-12.6-18.68-14.78-23.27-16.16-33.69-2.06-14.56,4.13-35.42,13.87-46.76,4.36-5.16,9.74-12.61,21.66-30.37,4.47-6.65,11.69-17,15.82-22.92a183.88,183.88,0,0,0,11.8-18.91c2.29-4.47,5-9.4,6.19-11.12,2.06-3,15.13-12.83,26.36-19.82,4.35-2.75,5.61-4.13,5.84-7,.34-3.33.12-3.67-4-4.24-2.41-.46-11.8-1.26-21-2.07-21-1.6-31.52-3.55-38.74-7.22a73.24,73.24,0,0,0-14.09-4.7C527,51.64,510.07,44,494.26,34.79c-11.35-6.65-15.13-6.88-27.39-1.15s-22.47,12.72-35,24.07c-6.19,5.73-13.75,11.23-18.22,13.52-6.87,3.44-8.48,3.9-16,3.67-10.2-.34-14.67-2.06-21.55-8.48C370.26,61,355.24,39.37,351.58,31c-2.18-5.05-5.85-20.63-5.85-25.1C345.73,1.21,338.51-2,335.65,1.44Z" transform="translate(0.02 0)"/></svg>