<svg id="Layer_1" data-name="Layer 1" xmlns="http://www.w3.org/2000/svg" viewBox="0 0 524.41 1280.6"><defs><style>.cls-1{fill:#b3d59d;}</style></defs><path class="cls-1" d="M320,5.5a360.33,360.33,0,0,1-33.4,94c-14.6,28.4-29,51.3-62.1,98.5-34.2,48.8-51.9,76.8-65.5,103.5-8.1,15.9-27.7,59.6-40.5,90.5-40.7,97.5-56,164.3-60.6,264.2C55.1,717.8,65,763,94.5,823.5c14.4,29.4,27.5,51.8,61.9,105.4,39.6,61.7,51.6,81.8,66.7,112.4,20.2,40.9,21.5,46.5,28.4,128.7,5.7,67,12.1,94.5,24.9,106.9l3.4,3.3.7-2.3c1.4-4.2.8-29.1-.9-39.4-.9-5.5-4.3-21-7.6-34.5-9.1-37.7-9.4-39.6-9.4-63,0-12.1.5-23.6,1.2-28,6.8-40.2,24.6-69.3,64.7-106,7.7-7,25.7-22.8,40-35.1,60.2-51.6,93.5-83.5,120.8-116,38.6-45.8,66-97.8,79.2-150.1,16.9-66.6,17.8-142.7,2.5-218.3-11.7-57.6-33.7-119-65.6-182.6-18.3-36.7-26.5-46.9-62-77.4-30.7-26.5-40.9-38.5-51.3-60.6-7.4-15.7-12-29.1-22.9-66.9-5.6-19-11.5-38.5-13.2-43.3-8.1-23-16.3-37.7-27.1-49.1l-7.7-8Z" transform="translate(-57.45 0.4)"/></svg>