<?xml version="1.0" encoding="utf-8"?>
<!-- Generator: Adobe Illustrator 25.3.1, SVG Export Plug-In . SVG Version: 6.00 Build 0)  -->
<svg version="1.1" id="Layer_1" xmlns="http://www.w3.org/2000/svg" xmlns:xlink="http://www.w3.org/1999/xlink" x="0px" y="0px"
	 viewBox="0 0 16 16" style="enable-background:new 0 0 16 16;" xml:space="preserve">
<style type="text/css">
	.st0{fill-rule:evenodd;clip-rule:evenodd;fill:#00CC99;}
	.st1{fill-rule:evenodd;clip-rule:evenodd;fill:#006600;}
</style>
<g id="页面-1">
	<g id="medium_icon">
		<circle class="st0" cx="8" cy="8" r="8"/>
		<path id="形状" class="st1" d="M6.4,5.5v6.2c0,0.1,0,0.2-0.1,0.2C6.3,12,6.2,12,6.1,12H6l-2.5-1.2c-0.1,0-0.1-0.1-0.2-0.2
			c-0.1-0.1-0.1-0.2-0.1-0.2v-6c0-0.1,0-0.1,0.1-0.2c0,0,0.1-0.1,0.2-0.1c0,0,0.1,0,0.2,0.1L6.4,5.5L6.4,5.5z M6.7,6l2.9,4.6
			L6.7,9.2V6z M12.8,6.1v5.6c0,0.1,0,0.2-0.1,0.2C12.6,12,12.6,12,12.5,12s-0.2,0-0.2-0.1l-2.4-1.2L12.8,6.1z M12.8,5.5
			c0,0-0.5,0.7-1.4,2.2C10.5,9.2,10,10,9.8,10.3L7.7,6.9l1.7-2.8C9.5,4.1,9.6,4,9.7,4c0.1,0,0.1,0,0.1,0L12.8,5.5L12.8,5.5z"/>
	</g>
</g>
</svg>
