<?xml version="1.0" encoding="utf-8"?>
<!-- Generator: Adobe Illustrator 25.3.1, SVG Export Plug-In . SVG Version: 6.00 Build 0)  -->
<svg version="1.1" id="Layer_1" xmlns="http://www.w3.org/2000/svg" xmlns:xlink="http://www.w3.org/1999/xlink" x="0px" y="0px"
	 viewBox="0 0 16 16" style="enable-background:new 0 0 16 16;" xml:space="preserve">
<style type="text/css">
	.st0{fill-rule:evenodd;clip-rule:evenodd;fill:#00CC99;}
	.st1{fill-rule:evenodd;clip-rule:evenodd;fill:#006600;}
</style>
<g id="页面-1">
	<g id="Twitter_icon">
		<circle class="st0" cx="8" cy="8" r="8"/>
		<path id="路径" class="st1" d="M13.6,4.9c-0.4,0.2-0.8,0.3-1.2,0.3c0.4-0.2,0.8-0.6,0.9-1.1c-0.4,0.2-0.9,0.4-1.4,0.5
			C11.6,4.2,11,4,10.4,4C9.2,4,8.3,4.9,8.3,6c0,0.2,0,0.3,0.1,0.5C6.6,6.4,5,5.6,3.9,4.4C3.7,4.7,3.6,5,3.6,5.4c0,0.7,0.4,1.3,1,1.7
			c-0.3,0-0.7-0.1-1-0.3l0,0c0,1,0.7,1.8,1.7,2C5.2,8.9,5,8.9,4.8,8.9c-0.1,0-0.3,0-0.4,0c0.3,0.8,1.1,1.4,2,1.4
			c-0.7,0.5-1.6,0.9-2.6,0.9c-0.2,0-0.3,0-0.5,0c0.8,0.5,2,0.8,3.2,0.8c3.9,0,6.1-3.1,6.1-5.7c0-0.1,0-0.2,0-0.3
			C12.9,5.7,13.3,5.3,13.6,4.9z"/>
	</g>
</g>
</svg>
